<?xml version="1.0" encoding="utf-8"?>
<!-- Generator: Adobe Illustrator 25.1.0, SVG Export Plug-In . SVG Version: 6.00 Build 0)  -->
<svg version="1.1" id="Capa_1" xmlns="http://www.w3.org/2000/svg" xmlns:xlink="http://www.w3.org/1999/xlink" x="0px" y="0px"
	 viewBox="0 0 75.59 97.82" style="enable-background:new 0 0 75.59 97.82;" xml:space="preserve">
<style type="text/css">
	.st0{fill:#FFFFFF;}
</style>
<g>
	<path class="st0" d="M40.48,35.86h-9.09c-0.4,0-0.72,0.32-0.72,0.72c0,0.4,0.32,0.72,0.72,0.72h8.21l-0.98,5.04h-8.02l-2.2-8.99
		c-0.08-0.32-0.37-0.55-0.7-0.55h-3.15c-0.4,0-0.72,0.32-0.72,0.72s0.32,0.72,0.72,0.72h2.58l2.2,8.99c0.08,0.32,0.37,0.55,0.7,0.55
		h9.18c0.34,0,0.64-0.24,0.71-0.58l1.26-6.48c0.04-0.21-0.01-0.43-0.15-0.6C40.9,35.96,40.69,35.86,40.48,35.86z"/>
	<circle class="st0" cx="31.86" cy="46.53" r="1.64"/>
	<circle class="st0" cx="37.4" cy="46.53" r="1.64"/>
</g>
</svg>
