<?xml version="1.0" encoding="utf-8"?>
<!-- Generator: Adobe Illustrator 25.1.0, SVG Export Plug-In . SVG Version: 6.00 Build 0)  -->
<svg version="1.1" id="Capa_1" xmlns="http://www.w3.org/2000/svg" xmlns:xlink="http://www.w3.org/1999/xlink" x="0px" y="0px"
	 viewBox="0 0 75.59 97.82" style="enable-background:new 0 0 75.59 97.82;" xml:space="preserve">
<style type="text/css">
	.st0{opacity:0.8;fill:url(#SVGID_1_);}
	.st1{fill:#FFFFFF;}
	.st2{fill:#FF4D00;}
</style>
<g>
	<radialGradient id="SVGID_1_" cx="37.7931" cy="46.9497" r="12.9711" gradientUnits="userSpaceOnUse">
		<stop  offset="0" style="stop-color:#312755"/>
		<stop  offset="0.2482" style="stop-color:#635179;stop-opacity:0.7518"/>
		<stop  offset="0.5193" style="stop-color:#A093AC;stop-opacity:0.4807"/>
		<stop  offset="0.744" style="stop-color:#D2CBD8;stop-opacity:0.256"/>
		<stop  offset="0.9103" style="stop-color:#F3F1F5;stop-opacity:0.0897"/>
		<stop  offset="1" style="stop-color:#FFFFFF;stop-opacity:0"/>
	</radialGradient>
	<circle class="st0" cx="37.79" cy="46.95" r="12.97"/>
	<g>
		<path class="st1" d="M34.89,50.88H33.6c-4.69,0-8.5-3.8-8.5-8.5V41.1c0-4.69,3.8-8.5,8.5-8.5h1.29c4.69,0,8.5,3.8,8.5,8.5v1.29
			C43.39,47.08,39.59,50.88,34.89,50.88z"/>
		<g>
			<g>
				<g>
					<path class="st2" d="M37.05,38.36c-0.34,0-0.62,0.28-0.62,0.62c0,0.34,0.28,0.62,0.62,0.62c0.34,0,0.62-0.28,0.62-0.62
						C37.67,38.64,37.39,38.36,37.05,38.36z"/>
					<path class="st2" d="M34.29,39.15c-1.44,0-2.61,1.17-2.61,2.61c0,1.44,1.17,2.61,2.61,2.61s2.61-1.17,2.61-2.61
						C36.9,40.32,35.73,39.15,34.29,39.15z M34.29,43.43c-0.92,0-1.67-0.75-1.67-1.67c0-0.92,0.75-1.67,1.67-1.67
						s1.67,0.75,1.67,1.67C35.96,42.68,35.21,43.43,34.29,43.43z"/>
					<path class="st2" d="M36.36,47.06h-4.23c-1.75,0-3.18-1.43-3.18-3.18v-4.23c0-1.75,1.43-3.18,3.18-3.18h4.23
						c1.75,0,3.18,1.43,3.18,3.18v4.23C39.54,45.63,38.12,47.06,36.36,47.06z M32.14,37.46c-1.2,0-2.18,0.98-2.18,2.18v4.23
						c0,1.2,0.98,2.18,2.18,2.18h4.23c1.2,0,2.18-0.98,2.18-2.18v-4.23c0-1.2-0.98-2.18-2.18-2.18H32.14z"/>
				</g>
			</g>
		</g>
	</g>
</g>
</svg>
