<?xml version="1.0" encoding="utf-8"?>
<!-- Generator: Adobe Illustrator 25.1.0, SVG Export Plug-In . SVG Version: 6.00 Build 0)  -->
<svg version="1.1" id="Capa_1" xmlns="http://www.w3.org/2000/svg" xmlns:xlink="http://www.w3.org/1999/xlink" x="0px" y="0px"
	 viewBox="0 0 163.58 70.81" style="enable-background:new 0 0 163.58 70.81;" xml:space="preserve">
<style type="text/css">
	.st0{fill:#FFFFFF;}
</style>
<g>
	<g>
		<rect x="10.01" y="19.01" class="st0" width="37.75" height="29.47"/>
		<rect x="10.01" y="49.61" class="st0" width="37.75" height="3.08"/>
		<rect x="10.01" y="53.39" class="st0" width="37.75" height="3.08"/>
		<rect x="10.01" y="57.37" class="st0" width="37.75" height="3.08"/>
	</g>
	<g>
		
			<rect x="68.69" y="23.15" transform="matrix(-1.836970e-16 1 -1 -1.836970e-16 125.446 -49.6755)" class="st0" width="37.75" height="29.47"/>
		
			<rect x="51.29" y="36.35" transform="matrix(-1.836970e-16 1 -1 -1.836970e-16 108.0464 -32.2758)" class="st0" width="37.75" height="3.08"/>
		
			<rect x="47.51" y="36.35" transform="matrix(-1.836970e-16 1 -1 -1.836970e-16 104.2658 -28.4952)" class="st0" width="37.75" height="3.08"/>
		
			<rect x="43.52" y="36.35" transform="matrix(-1.836970e-16 1 -1 -1.836970e-16 100.2819 -24.5113)" class="st0" width="37.75" height="3.08"/>
	</g>
	<g>
		
			<rect x="115.37" y="30.42" transform="matrix(-1 -1.224647e-16 1.224647e-16 -1 268.4807 90.3152)" class="st0" width="37.75" height="29.47"/>
		
			<rect x="115.37" y="26.22" transform="matrix(-1 -1.224647e-16 1.224647e-16 -1 268.4807 55.5159)" class="st0" width="37.75" height="3.08"/>
		
			<rect x="115.37" y="22.44" transform="matrix(-1 -1.224647e-16 1.224647e-16 -1 268.4807 47.9547)" class="st0" width="37.75" height="3.08"/>
		
			<rect x="115.37" y="18.46" transform="matrix(-1 -1.224647e-16 1.224647e-16 -1 268.4807 39.9869)" class="st0" width="37.75" height="3.08"/>
	</g>
	<g>
		<path class="st0" d="M10.36,11.88c0.53-0.54,1.29-0.9,2.12-0.9c1.4,0,2.51,0.86,2.86,2.23h-0.88c-0.32-0.91-1.08-1.36-1.98-1.36
			c-0.59,0-1.12,0.25-1.51,0.65c-0.39,0.4-0.63,0.93-0.63,1.55c0,0.6,0.25,1.14,0.63,1.54c0.39,0.4,0.92,0.65,1.51,0.65
			c0.93,0,1.72-0.53,2.03-1.44h0.87c-0.35,1.37-1.47,2.3-2.9,2.3c-0.83,0-1.59-0.35-2.12-0.9c-0.53-0.55-0.88-1.31-0.88-2.15
			C9.49,13.19,9.84,12.43,10.36,11.88z"/>
		<path class="st0" d="M15.84,15.23v-4.22h0.89v4.23c0,0.66,0.73,0.99,1.38,0.99c0.64,0,1.37-0.34,1.37-1v-4.22h0.89v4.23
			c0,1.23-1.21,1.86-2.26,1.86C17.03,17.11,15.84,16.47,15.84,15.23z"/>
		<path class="st0" d="M23.53,11.01c0.77,0,1.26,0.43,1.49,0.99c0.25,0.6,0.17,1.29-0.45,1.72c0.7,0.29,0.95,0.93,0.95,1.5
			c0,0.91-0.6,1.82-1.78,1.82h-2.77v-6.03H23.53z M21.85,13.41h1.66c0.96,0,0.98-1.57,0.02-1.57h-1.67V13.41z M21.85,16.2h1.89
			c0.6,0,0.89-0.49,0.89-0.97c0-0.47-0.3-0.96-0.89-0.96h-1.89V16.2z"/>
		<path class="st0" d="M26.72,11.63c0.56-0.58,1.35-0.95,2.21-0.95c0.87,0,1.65,0.37,2.22,0.95c0.55,0.58,0.91,1.38,0.91,2.27
			c0,0.89-0.36,1.69-0.91,2.27c-0.57,0.59-1.35,0.95-2.22,0.95c-0.86,0-1.65-0.36-2.21-0.95c-0.55-0.58-0.91-1.38-0.91-2.27
			C25.81,13.01,26.17,12.21,26.72,11.63z M30.52,12.28c-0.41-0.42-0.98-0.68-1.59-0.68s-1.17,0.26-1.57,0.68
			c-0.4,0.41-0.66,0.99-0.66,1.62c0,0.64,0.25,1.21,0.66,1.62c0.4,0.42,0.96,0.68,1.57,0.68s1.17-0.26,1.59-0.68
			c0.39-0.41,0.65-0.98,0.65-1.62C31.17,13.26,30.91,12.69,30.52,12.28z"/>
		<path class="st0" d="M34.82,11.51c2.01,0,3.01,1.39,3.01,2.77s-1.01,2.77-3.01,2.77h-2.2v-5.54H34.82z M34.82,16.25
			c1.42,0,2.14-0.98,2.14-1.97s-0.72-1.97-2.14-1.97H33.5v3.94H34.82z"/>
		<path class="st0" d="M41.41,15.45l-1.1-2.8c-0.24,0.5-1.64,3.95-1.83,4.4h-0.95l2.46-5.5h0.65l2.46,5.5h-0.95L41.41,15.45z
			 M40.32,12.79"/>
		<path class="st0" d="M44.08,11.01v6.03H43.2v-6.03H44.08z"/>
		<rect x="28.94" y="10.68" class="st0" width="15.14" height="0.83"/>
		<polygon class="st0" points="44.27,13.84 46.4,11.04 47.52,11.04 45.18,14.04 47.76,17.08 46.6,17.08 44.27,14.28 		"/>
	</g>
	<g>
		<path class="st0" d="M61.81,11.88c0.58-0.54,1.39-0.9,2.3-0.9c1.52,0,2.71,0.86,3.09,2.23h-0.95c-0.35-0.91-1.17-1.36-2.14-1.36
			c-0.64,0-1.21,0.25-1.63,0.65c-0.42,0.4-0.68,0.93-0.68,1.55c0,0.6,0.27,1.14,0.68,1.54c0.42,0.4,1,0.65,1.63,0.65
			c1.01,0,1.86-0.53,2.2-1.44h0.94c-0.38,1.37-1.59,2.3-3.14,2.3c-0.9,0-1.72-0.35-2.3-0.9c-0.57-0.55-0.95-1.31-0.95-2.15
			C60.86,13.19,61.24,12.43,61.81,11.88z"/>
		<path class="st0" d="M67.73,15.23v-4.22h0.97v4.23c0,0.66,0.79,0.99,1.49,0.99c0.69,0,1.48-0.34,1.48-1v-4.22h0.97v4.23
			c0,1.23-1.31,1.86-2.45,1.86C69.02,17.11,67.73,16.47,67.73,15.23z"/>
		<path class="st0" d="M76.06,11.01c0.83,0,1.37,0.43,1.61,0.99c0.27,0.6,0.18,1.29-0.48,1.72c0.76,0.29,1.03,0.93,1.03,1.5
			c0,0.91-0.65,1.82-1.93,1.82h-3v-6.03H76.06z M74.25,13.41h1.79c1.04,0,1.06-1.57,0.02-1.57h-1.81V13.41z M74.25,16.2h2.05
			c0.64,0,0.97-0.49,0.97-0.97c0-0.47-0.32-0.96-0.97-0.96h-2.05V16.2z"/>
		<path class="st0" d="M79.52,11.63c0.61-0.58,1.46-0.95,2.39-0.95c0.94,0,1.78,0.37,2.4,0.95c0.6,0.58,0.99,1.38,0.99,2.27
			c0,0.89-0.39,1.69-0.99,2.27c-0.62,0.59-1.46,0.95-2.4,0.95c-0.93,0-1.78-0.36-2.39-0.95c-0.6-0.58-0.99-1.38-0.99-2.27
			C78.53,13.01,78.92,12.21,79.52,11.63z M83.63,12.28c-0.45-0.42-1.06-0.68-1.72-0.68c-0.65,0-1.26,0.26-1.7,0.68
			c-0.44,0.41-0.71,0.99-0.71,1.62c0,0.64,0.27,1.21,0.71,1.62c0.44,0.42,1.04,0.68,1.7,0.68c0.65,0,1.27-0.26,1.72-0.68
			c0.43-0.41,0.7-0.98,0.7-1.62C84.33,13.26,84.05,12.69,83.63,12.28z"/>
		<path class="st0" d="M88.28,11.51c2.17,0,3.26,1.39,3.26,2.77s-1.09,2.77-3.26,2.77H85.9v-5.54H88.28z M88.28,16.25
			c1.54,0,2.31-0.98,2.31-1.97s-0.78-1.97-2.31-1.97h-1.42v3.94H88.28z"/>
		<path class="st0" d="M95.42,15.45l-1.19-2.8c-0.26,0.5-1.77,3.95-1.98,4.4h-1.03l2.66-5.5h0.7l2.66,5.5h-1.02L95.42,15.45z
			 M94.24,12.79"/>
		<path class="st0" d="M98.3,11.01v6.03h-0.95v-6.03H98.3z"/>
		<rect x="81.91" y="10.68" class="st0" width="16.39" height="0.83"/>
		<polygon class="st0" points="98.51,13.84 100.82,11.04 102.03,11.04 99.5,14.04 102.29,17.08 101.04,17.08 98.51,14.28 		"/>
	</g>
	<g>
		<path class="st0" d="M115.88,11.39c0.53-0.54,1.29-0.9,2.12-0.9c1.4,0,2.5,0.86,2.85,2.23h-0.88c-0.32-0.91-1.08-1.36-1.98-1.36
			c-0.59,0-1.12,0.25-1.51,0.65c-0.39,0.4-0.63,0.93-0.63,1.55c0,0.6,0.25,1.14,0.63,1.54c0.39,0.4,0.92,0.65,1.51,0.65
			c0.93,0,1.72-0.53,2.03-1.44h0.87c-0.35,1.37-1.47,2.3-2.9,2.3c-0.83,0-1.58-0.35-2.12-0.9c-0.53-0.55-0.88-1.31-0.88-2.15
			C115,12.7,115.35,11.94,115.88,11.39z"/>
		<path class="st0" d="M121.35,14.75v-4.22h0.89v4.23c0,0.66,0.73,0.99,1.37,0.99c0.64,0,1.37-0.34,1.37-1v-4.22h0.89v4.23
			c0,1.23-1.21,1.86-2.26,1.86C122.54,16.62,121.35,15.98,121.35,14.75z"/>
		<path class="st0" d="M129.03,10.53c0.77,0,1.26,0.43,1.49,0.99c0.25,0.6,0.17,1.29-0.45,1.72c0.7,0.29,0.95,0.93,0.95,1.5
			c0,0.91-0.6,1.82-1.78,1.82h-2.77v-6.03H129.03z M127.36,12.93h1.65c0.96,0,0.98-1.57,0.02-1.57h-1.67V12.93z M127.36,15.71h1.89
			c0.6,0,0.89-0.49,0.89-0.97c0-0.47-0.3-0.96-0.89-0.96h-1.89V15.71z"/>
		<path class="st0" d="M132.23,11.14c0.56-0.58,1.35-0.95,2.21-0.95c0.87,0,1.65,0.37,2.21,0.95c0.55,0.58,0.91,1.38,0.91,2.27
			c0,0.89-0.36,1.69-0.91,2.27c-0.57,0.59-1.35,0.95-2.21,0.95c-0.86,0-1.65-0.36-2.21-0.95c-0.55-0.58-0.91-1.38-0.91-2.27
			C131.32,12.53,131.68,11.73,132.23,11.14z M136.02,11.79c-0.41-0.42-0.98-0.68-1.58-0.68s-1.16,0.26-1.57,0.68
			c-0.4,0.41-0.66,0.99-0.66,1.62s0.25,1.21,0.66,1.62c0.4,0.42,0.96,0.68,1.57,0.68s1.17-0.26,1.58-0.68
			c0.39-0.41,0.65-0.98,0.65-1.62C136.67,12.77,136.41,12.2,136.02,11.79z"/>
		<path class="st0" d="M140.32,11.02c2,0,3.01,1.39,3.01,2.77s-1.01,2.77-3.01,2.77h-2.2v-5.54H140.32z M140.32,15.76
			c1.42,0,2.14-0.98,2.14-1.97s-0.72-1.97-2.14-1.97H139v3.94H140.32z"/>
		<path class="st0" d="M146.91,14.96l-1.1-2.8c-0.24,0.5-1.64,3.95-1.83,4.4h-0.95l2.46-5.5h0.65l2.46,5.5h-0.95L146.91,14.96z
			 M145.81,12.3"/>
		<path class="st0" d="M149.57,10.53v6.03h-0.88v-6.03H149.57z"/>
		<rect x="134.44" y="10.19" class="st0" width="15.13" height="0.83"/>
		<polygon class="st0" points="149.76,13.35 151.89,10.56 153.01,10.56 150.67,13.55 153.25,16.59 152.1,16.59 149.76,13.79 		"/>
	</g>
</g>
</svg>
