<?xml version="1.0" encoding="utf-8"?>
<!-- Generator: Adobe Illustrator 25.1.0, SVG Export Plug-In . SVG Version: 6.00 Build 0)  -->
<svg version="1.1" id="Capa_1" xmlns="http://www.w3.org/2000/svg" xmlns:xlink="http://www.w3.org/1999/xlink" x="0px" y="0px"
	 viewBox="0 0 75.59 97.82" style="enable-background:new 0 0 75.59 97.82;" xml:space="preserve">
<style type="text/css">
	.st0{fill:#248A8B;}
	.st1{fill:#FFFFFF;}
</style>
<ellipse class="st0" cx="37.79" cy="42.6" rx="11.05" ry="11.45"/>
<path class="st1" d="M43.27,47.64l-2.68-2.68c0.78-0.98,1.14-2.22,0.97-3.49c-0.26-2.05-1.94-3.72-3.98-3.98
	c-1.44-0.18-2.85,0.3-3.86,1.31c-1.02,1.02-1.5,2.42-1.32,3.86c0.25,2.05,1.93,3.73,3.98,3.99c0.2,0.03,0.4,0.04,0.6,0.04
	c1.06,0,2.07-0.36,2.89-1.01l2.68,2.68c0.1,0.1,0.23,0.15,0.36,0.15c0.13,0,0.26-0.05,0.36-0.15
	C43.47,48.16,43.47,47.83,43.27,47.64z M36.51,45.64c-1.6-0.2-2.9-1.51-3.1-3.11c-0.14-1.13,0.24-2.23,1.03-3.02
	c0.68-0.68,1.59-1.05,2.55-1.05c0.15,0,0.31,0.01,0.47,0.03c1.59,0.2,2.9,1.5,3.1,3.1c0.14,1.13-0.23,2.22-1.02,3.02
	c0,0-0.01,0-0.01,0.01c0,0,0,0.01-0.01,0.01C38.74,45.42,37.63,45.79,36.51,45.64z"/>
</svg>
