<?xml version="1.0" encoding="utf-8"?>
<!-- Generator: Adobe Illustrator 25.1.0, SVG Export Plug-In . SVG Version: 6.00 Build 0)  -->
<svg version="1.1" id="Capa_1" xmlns="http://www.w3.org/2000/svg" xmlns:xlink="http://www.w3.org/1999/xlink" x="0px" y="0px"
	 viewBox="0 0 75.59 97.82" style="enable-background:new 0 0 75.59 97.82;" xml:space="preserve">
<style type="text/css">
	.st0{fill:#FFFFFF;}
</style>
<path class="st0" d="M42.76,46.24H32.55c-0.71,0-1.28-0.57-1.28-1.28l0,0c0-0.71,0.57-1.28,1.28-1.28h10.21
	c0.71,0,1.28,0.57,1.28,1.28l0,0C44.04,45.67,43.47,46.24,42.76,46.24z"/>
<path class="st0" d="M40.57,49.9h-8.02c-0.71,0-1.28-0.57-1.28-1.28v0c0-0.71,0.57-1.28,1.28-1.28h8.02c0.71,0,1.28,0.57,1.28,1.28
	v0C41.85,49.33,41.28,49.9,40.57,49.9z"/>
<path class="st0" d="M37.51,53.47h-4.96c-0.71,0-1.28-0.57-1.28-1.28v0c0-0.71,0.57-1.28,1.28-1.28h4.96c0.71,0,1.28,0.57,1.28,1.28
	v0C38.78,52.9,38.21,53.47,37.51,53.47z"/>
</svg>
