<?xml version="1.0" encoding="utf-8"?>
<!-- Generator: Adobe Illustrator 25.1.0, SVG Export Plug-In . SVG Version: 6.00 Build 0)  -->
<svg version="1.1" id="Capa_1" xmlns="http://www.w3.org/2000/svg" xmlns:xlink="http://www.w3.org/1999/xlink" x="0px" y="0px"
	 viewBox="0 0 75.59 97.82" style="enable-background:new 0 0 75.59 97.82;" xml:space="preserve">
<style type="text/css">
	.st0{fill:#FFFFFF;}
	.st1{fill:#FF4D00;}
</style>
<g>
	<ellipse transform="matrix(0.9221 -0.3868 0.3868 0.9221 -14.6994 18.1706)" class="st0" cx="37.79" cy="45.6" rx="9.6" ry="9.6"/>
	<g>
		<g>
			<path class="st1" d="M40.53,41.08c0,1.51-1.22,2.74-2.74,2.74c-1.51,0-2.74-1.22-2.74-2.74c0-1.51,1.22-2.74,2.74-2.74
				C39.3,38.34,40.53,39.57,40.53,41.08z"/>
		</g>
		<g>
			<path class="st1" d="M37.79,44.75L37.79,44.75c-2.8,0-5.07,2.27-5.07,5.07l0,0c0,0.74,0.6,1.33,1.33,1.33h7.49
				c0.74,0,1.33-0.6,1.33-1.33l0,0C42.87,47.02,40.6,44.75,37.79,44.75z"/>
		</g>
	</g>
</g>
</svg>
