<?xml version="1.0" encoding="utf-8"?>
<!-- Generator: Adobe Illustrator 25.1.0, SVG Export Plug-In . SVG Version: 6.00 Build 0)  -->
<svg version="1.1" id="Capa_1" xmlns="http://www.w3.org/2000/svg" xmlns:xlink="http://www.w3.org/1999/xlink" x="0px" y="0px"
	 viewBox="0 0 75.59 97.82" style="enable-background:new 0 0 75.59 97.82;" xml:space="preserve">
<style type="text/css">
	.st0{opacity:0.8;fill:url(#SVGID_1_);}
	.st1{fill:#FFFFFF;}
	.st2{fill:#FF4D00;}
	.st3{fill-rule:evenodd;clip-rule:evenodd;fill:#FF4D00;}
</style>
<g>
	<radialGradient id="SVGID_1_" cx="37.7931" cy="45.6618" r="12.3176" gradientUnits="userSpaceOnUse">
		<stop  offset="0" style="stop-color:#312755"/>
		<stop  offset="0.2482" style="stop-color:#635179;stop-opacity:0.7518"/>
		<stop  offset="0.5193" style="stop-color:#A093AC;stop-opacity:0.4807"/>
		<stop  offset="0.744" style="stop-color:#D2CBD8;stop-opacity:0.256"/>
		<stop  offset="0.9103" style="stop-color:#F3F1F5;stop-opacity:0.0897"/>
		<stop  offset="1" style="stop-color:#FFFFFF;stop-opacity:0"/>
	</radialGradient>
	<circle class="st0" cx="37.79" cy="45.66" r="12.32"/>
	<path class="st1" d="M25.67,41.74l0-1.85c0-4.21,3.44-7.65,7.65-7.65h1.85c4.21,0,7.65,3.44,7.65,7.65v1.85
		c0,4.21-3.44,7.65-7.65,7.65l-1.85,0C29.11,49.38,25.67,45.94,25.67,41.74z"/>
	<path class="st2" d="M29.61,45.66l0.72-2.67c-0.4-0.73-0.62-1.55-0.62-2.38c0-2.72,2.21-4.93,4.93-4.93c2.72,0,4.93,2.21,4.93,4.93
		c0,2.72-2.21,4.93-4.93,4.93c-0.82,0-1.62-0.21-2.34-0.6L29.61,45.66z M32.43,43.94l0.17,0.1c0.62,0.37,1.33,0.56,2.04,0.56
		c2.2,0,3.99-1.79,3.99-3.99c0-2.2-1.79-3.99-3.99-3.99c-2.2,0-3.99,1.79-3.99,3.99c0,0.73,0.2,1.44,0.58,2.07l0.1,0.17l-0.4,1.49
		L32.43,43.94z"/>
	<path class="st3" d="M36.47,41.3c-0.2-0.12-0.47-0.26-0.71-0.16c-0.18,0.07-0.3,0.36-0.42,0.51c-0.06,0.08-0.13,0.09-0.23,0.05
		c-0.69-0.27-1.22-0.73-1.59-1.37c-0.06-0.1-0.05-0.18,0.02-0.27c0.11-0.13,0.26-0.29,0.29-0.47c0.03-0.18-0.05-0.39-0.13-0.56
		c-0.1-0.21-0.2-0.5-0.41-0.62c-0.19-0.11-0.44-0.05-0.61,0.09c-0.29,0.24-0.43,0.61-0.43,0.98c0,0.11,0.01,0.21,0.04,0.31
		c0.06,0.24,0.17,0.47,0.3,0.69c0.1,0.16,0.2,0.32,0.31,0.48c0.37,0.5,0.83,0.93,1.36,1.26c0.26,0.16,0.55,0.3,0.85,0.4
		c0.33,0.11,0.63,0.22,0.98,0.16c0.37-0.07,0.74-0.3,0.89-0.66c0.04-0.11,0.07-0.23,0.04-0.34C36.97,41.55,36.66,41.41,36.47,41.3z"
		/>
</g>
</svg>
